<svg width="44" height="28" fill="none" xmlns="http://www.w3.org/2000/svg"><path fill-rule="evenodd" clip-rule="evenodd" d="M17.493 18.47c-1.557 1.195-3.815 1.83-5.758 1.83A10.2 10.2 0 014.7 17.512c-.145-.136-.016-.323.16-.219 2.003 1.212 4.48 1.941 7.038 1.941a13.56 13.56 0 005.367-1.14c.264-.117.484.18.227.377z" fill="#F8991D"/><path fill-rule="evenodd" clip-rule="evenodd" d="M18.143 17.7c-.199-.264-1.315-.126-1.819-.062-.152.019-.175-.12-.04-.22.892-.649 2.353-.462 2.521-.245.171.219-.044 1.742-.88 2.467-.128.111-.25.05-.194-.095.19-.487.611-1.579.412-1.844z" fill="#F8991D"/><path fill-rule="evenodd" clip-rule="evenodd" d="M16.358 12.823v-.633c0-.097.07-.16.154-.16h2.727c.087 0 .157.066.157.16v.543c0 .09-.075.209-.206.399l-1.411 2.094c.524-.012 1.079.068 1.554.348.108.063.136.156.145.246v.674c0 .092-.098.199-.201.143a3.039 3.039 0 00-2.882.005c-.096.053-.194-.054-.194-.146v-.642c0-.102.002-.278.1-.436l1.637-2.44h-1.425a.149.149 0 01-.155-.155zm-9.946 3.948h-.829a.157.157 0 01-.147-.146v-4.424a.16.16 0 01.159-.158h.772a.158.158 0 01.15.148v.576h.016c.202-.559.58-.82 1.091-.82.52 0 .845.261 1.077.82.2-.559.657-.82 1.147-.82.348 0 .727.15.96.485.261.372.207.912.207 1.386v2.793a.16.16 0 01-.159.158h-.828a.158.158 0 01-.15-.158v-2.345c0-.185.016-.652-.023-.827-.061-.3-.249-.382-.487-.382a.552.552 0 00-.497.362c-.084.224-.077.596-.077.847v2.345a.16.16 0 01-.159.158h-.828a.158.158 0 01-.15-.158v-2.345c0-.494.077-1.219-.51-1.219-.597 0-.574.708-.574 1.219v2.345a.16.16 0 01-.161.16zm15.34-3.919c-.611 0-.65.866-.65 1.406 0 .54-.008 1.693.643 1.693.643 0 .674-.932.674-1.499 0-.372-.017-.82-.124-1.172-.096-.31-.281-.428-.543-.428zm-.01-.903c1.232 0 1.896 1.1 1.896 2.496 0 1.35-.735 2.42-1.896 2.42-1.207 0-1.865-1.1-1.865-2.466 0-1.38.667-2.45 1.865-2.45zm3.494 4.821h-.826a.16.16 0 01-.15-.158v-4.427a.158.158 0 01.159-.143h.77a.162.162 0 01.147.124v.676h.017c.231-.606.557-.893 1.13-.893.372 0 .735.139.967.52.218.354.218.95.218 1.378v2.782a.16.16 0 01-.16.139h-.83a.158.158 0 01-.148-.139v-2.4c0-.485.054-1.192-.52-1.192-.2 0-.386.138-.48.352-.116.27-.13.54-.13.84v2.38a.165.165 0 01-.164.161zm-10.211-.012a.168.168 0 01-.196.02c-.277-.24-.326-.349-.476-.575-.454.482-.777.628-1.366.628-.698 0-1.24-.448-1.24-1.343 0-.7.364-1.175.884-1.409.45-.204 1.079-.243 1.559-.299v-.112c0-.204.016-.447-.101-.625-.1-.158-.295-.224-.466-.224-.316 0-.597.168-.667.518-.014.078-.068.156-.143.159l-.805-.09c-.068-.017-.142-.073-.124-.18.183-1 1.042-1.312 1.821-1.319h.061c.4.005.91.12 1.22.428.402.392.365.915.365 1.484v1.343c0 .404.161.581.313.798.054.078.066.172-.002.229a70.2 70.2 0 00-.637.569zm-.838-2.102c0 .336.007.615-.154.915-.131.243-.342.391-.574.391-.318 0-.503-.253-.503-.625 0-.735.635-.868 1.234-.868v.187h-.003zM4.148 16.761a.168.168 0 01-.196.02c-.277-.239-.326-.348-.475-.575-.457.482-.778.628-1.367.628-.698 0-1.24-.447-1.24-1.343 0-.7.364-1.175.884-1.408.45-.204 1.079-.243 1.559-.3v-.111c0-.205.016-.448-.101-.625-.1-.159-.295-.224-.466-.224-.316 0-.597.168-.667.518-.014.078-.068.153-.143.158l-.805-.09c-.068-.017-.142-.073-.124-.182.183-1 1.042-1.312 1.821-1.319h.061c.4.005.91.12 1.22.428.402.392.365.915.365 1.484v1.343c0 .404.161.581.313.798.054.078.066.173-.002.228-.166.151-.468.421-.637.572zm-.835-2.102c0 .336.007.616-.155.915-.13.243-.341.392-.573.392-.319 0-.503-.253-.503-.625 0-.735.634-.869 1.233-.869v.187h-.002zm35.695 3.699v-.326c0-.093.044-.156.135-.151.173.027.42.051.592.015.227-.05.391-.217.487-.446.136-.323.225-.583.283-.754l-1.724-4.441c-.029-.076-.038-.217.107-.217h.604c.115 0 .162.075.187.15l1.25 3.608 1.194-3.607c.023-.073.072-.15.187-.15h.569c.143 0 .136.138.108.216l-1.712 4.58c-.222.61-.517 1.581-1.181 1.749-.333.09-.754.058-1-.049-.063-.031-.087-.119-.087-.177zm-.808-1.856a.148.148 0 01-.145.151h-.426c-.091 0-.154-.068-.166-.15l-.042-.302a2.454 2.454 0 01-.695.428c-.501.202-1.077.236-1.566-.076-.354-.226-.54-.666-.54-1.121 0-.353.105-.7.334-.954.309-.345.756-.515 1.297-.515.325 0 .793.039 1.132.155v-.608c0-.615-.25-.883-.908-.883-.503 0-.887.078-1.423.25-.087.003-.136-.065-.136-.148v-.34c0-.083.068-.163.143-.188.382-.172.922-.282 1.498-.301.75 0 1.64.175 1.64 1.374v3.228h.003zm-.817-.885v-.915c-.285-.08-.758-.114-.94-.114-.288 0-.607.07-.77.255a.774.774 0 00-.18.518c0 .244.081.487.268.608.22.156.56.137.88.042.31-.09.597-.25.742-.394zm-5.455-2.977c.943 0 1.2.772 1.2 1.655.005.596-.1 1.126-.397 1.43-.223.229-.47.29-.843.29-.332 0-.77-.18-1.095-.43v-2.526a1.91 1.91 0 011.135-.418zm-1.28 5.875h-.57a.149.149 0 01-.144-.15v-6.17c0-.082.065-.15.145-.15h.435c.091 0 .155.068.166.15l.047.324c.41-.377.934-.618 1.435-.618 1.402 0 1.865 1.202 1.865 2.452 0 1.338-.707 2.411-1.898 2.411a1.95 1.95 0 01-1.334-.528v2.131a.15.15 0 01-.148.148z" fill="#333E47"/></svg>