<svg width="34" height="28" fill="none" xmlns="http://www.w3.org/2000/svg"><g clip-path="url(#clip0_2598_6265)"><path d="M2.889 11.44h1.177l-.589-1.503-.588 1.504z" fill="#2FABF7"/><path d="M17.494 10.152c-.107-.053-.267-.053-.428-.053h-1.07v.859h1.07c.16 0 .321 0 .428-.054.107-.054.16-.215.16-.376.054-.215-.053-.322-.16-.376z" fill="#228FE0"/><path d="M28.944 8.54v.644l-.32-.644h-2.515v.644l-.321-.644h-3.424c-.589 0-1.07.107-1.498.322V8.54h-2.408v.322c-.267-.215-.588-.322-1.016-.322H8.828l-.589 1.342-.588-1.342H4.922v.644l-.32-.644H2.3l-1.07 2.523L0 13.856h2.729l.32-.86h.75l.32.86h3.104v-.645l.267.645h1.552l.267-.645v.645h7.437V12.46h.107c.107 0 .107 0 .107.16v1.182h3.852v-.322c.321.16.803.322 1.445.322h1.605l.32-.86h.75l.32.86h3.104v-.806l.481.806h2.515V8.54h-2.408zm-18.083 4.51h-.91v-2.953L8.667 13.05h-.802L6.58 10.097v2.953H4.76l-.374-.805H2.568l-.32.859H1.23L2.836 9.29h1.337l1.498 3.598V9.291h1.445l1.177 2.578 1.07-2.578h1.498v3.76zm3.638-2.953h-2.087v.698h2.033v.752h-2.033v.751H14.5v.806h-2.996V9.29H14.5v.806zm4.013 1.557c.107.215.16.376.16.698v.752h-.91v-.483c0-.215 0-.537-.16-.752-.16-.161-.321-.161-.642-.161h-.963v1.396h-.91V9.29h2.034c.481 0 .802 0 1.07.161.267.162.428.43.428.86 0 .59-.375.913-.642 1.02.267.054.428.215.535.322zm1.605 1.396h-.91V9.238h.91v3.812zm10.54 0h-1.285l-1.712-2.846v2.846h-1.819l-.32-.805h-1.873l-.321.859H22.31c-.428 0-.963-.107-1.284-.43-.32-.322-.481-.752-.481-1.45 0-.537.107-1.074.481-1.503.268-.322.75-.43 1.338-.43h.856v.806h-.856c-.321 0-.482.053-.696.215-.16.16-.267.483-.267.859 0 .43.053.698.267.913.16.16.375.214.642.214h.375l1.23-2.953h1.338l1.498 3.598V9.345h1.337l1.552 2.631V9.345h.91v3.705h.107z" fill="#0571C1"/><path d="M23.969 11.44h1.23l-.588-1.503-.642 1.504zm-9.096 7.732V16.11l-1.39 1.503 1.39 1.558z" fill="#228FE0"/><path d="M9.148 16.487v.698h1.98v.752h-1.98v.805h2.194l1.016-1.128-.963-1.127H9.149z" fill="#2FABF7"/><path d="M16.907 16.487h-1.124v.967h1.177c.321 0 .535-.161.535-.483-.053-.323-.267-.484-.588-.484z" fill="#228FE0"/><path d="M33.437 17.4v-2.416H31.19c-.481 0-.856.107-1.123.322v-.322h-2.461c-.375 0-.856.107-1.07.322v-.322h-4.334v.322c-.321-.268-.91-.322-1.177-.322h-2.89v.322c-.267-.268-.909-.322-1.23-.322h-3.21l-.749.805-.695-.805H7.436v5.262h4.708l.749-.805.695.805h2.89v-1.235h.374c.374 0 .856 0 1.23-.16V20.3h2.408v-1.396h.107c.16 0 .16 0 .16.161V20.3h7.277c.481 0 .963-.107 1.23-.322v.322h2.3c.482 0 .964-.054 1.285-.268.535-.323.856-.913.856-1.611 0-.376-.107-.752-.268-1.02zm-16.585.86h-1.07v1.288H14.07L13 18.313l-1.124 1.235h-3.53v-3.812h3.584L13 16.97l1.123-1.235h2.836c.695 0 1.498.214 1.498 1.235-.054 1.074-.803 1.288-1.605 1.288zm5.35-.215c.107.16.16.376.16.698v.752h-.909v-.484c0-.214 0-.59-.16-.752-.107-.16-.322-.16-.642-.16h-.964v1.395h-.91v-3.812h2.034c.428 0 .802 0 1.07.161a.95.95 0 01.482.86c0 .59-.375.912-.642 1.02.267.107.427.214.481.322zm3.692-1.558h-2.087v.699h2.033v.751h-2.033v.752h2.087v.805h-2.996v-3.812h2.996v.805zm2.247 3.008h-1.712v-.806h1.712c.16 0 .267 0 .374-.107a.411.411 0 00.107-.269.411.411 0 00-.107-.268c-.053-.054-.16-.108-.32-.108-.857-.053-1.873 0-1.873-1.181 0-.537.32-1.128 1.284-1.128h1.765v.913h-1.658c-.16 0-.268 0-.375.054-.107.053-.107.16-.107.268 0 .161.107.215.214.269a.676.676 0 00.321.053h.482c.481 0 .802.108 1.016.323.16.16.268.43.268.805 0 .806-.482 1.181-1.391 1.181zm4.6-.376c-.213.214-.588.375-1.123.375h-1.712v-.805h1.712c.16 0 .268 0 .375-.107a.411.411 0 00.107-.269.411.411 0 00-.107-.268c-.054-.054-.16-.108-.321-.108-.856-.053-1.873 0-1.873-1.181 0-.537.321-1.128 1.284-1.128h1.766v.913h-1.605c-.16 0-.268 0-.375.054-.107.053-.107.16-.107.268 0 .161.054.215.214.269a.676.676 0 00.321.053h.482c.481 0 .802.108 1.016.323.054 0 .054.053.054.053.16.215.214.484.214.752 0 .322-.107.59-.321.806z" fill="#0571C1"/><path d="M21.24 16.595c-.107-.054-.267-.054-.428-.054h-1.07v.86h1.07c.16 0 .321 0 .428-.055.107-.053.16-.214.16-.375.054-.215-.053-.323-.16-.376zm-3.746-6.444c-.107-.053-.267-.053-.428-.053h-1.07v.859h1.07c.16 0 .321 0 .428-.054.107-.054.16-.215.16-.376.054-.215-.053-.322-.16-.376zm6.475 1.289h1.23l-.588-1.503-.642 1.504zm-9.096 7.732V16.11l-1.39 1.503 1.39 1.558zm2.034-2.685h-1.124v.967h1.177c.321 0 .535-.161.535-.483-.053-.323-.267-.484-.588-.484z" fill="#228FE0"/><path d="M21.24 16.595c-.107-.054-.267-.054-.428-.054h-1.07v.86h1.07c.16 0 .321 0 .428-.055.107-.053.16-.214.16-.375.054-.215-.053-.323-.16-.376z" fill="#228FE0"/><path d="M16.53 19.387l-.748-.805v.912h-1.766l-1.07-1.235-1.177 1.235H8.24v-3.758h3.584l1.123 1.235.535-.645-1.337-1.342H7.436v5.262h4.708l.802-.805.696.805h2.889v-.859zm-5.562-5.585l-.696-.752h-.32v-.322l-.803-.806-.535 1.128h-.75l-1.283-2.953v2.953H4.76l-.374-.805H2.568l-.374.805H1.23l1.605-3.759h1.337l1.498 3.598V9.291h.803l-.75-.751h-.802v.644l-.267-.644H2.3l-1.07 2.523L0 13.802h2.782l.321-.806h.75l.374.806h2.996v-.644l.267.644h1.552l.267-.644v.644h1.659z" fill="#2FABF7"/><path d="M8.504 11.33l-.856-.858.642 1.396.214-.537z" fill="#2FABF7"/><path d="M32.85 19.977c.482-.322.803-.859.857-1.45l-.75-.751c.054.16.108.322.108.537 0 .322-.107.59-.321.805-.214.215-.589.376-1.124.376h-1.712v-.805h1.712c.16 0 .268 0 .375-.108a.41.41 0 00.107-.268.411.411 0 00-.107-.269c-.054-.053-.16-.107-.321-.107-.856-.054-1.873 0-1.873-1.182 0-.537.321-1.02 1.124-1.127l-.589-.59c-.107.053-.16.107-.214.107v-.323h-2.461c-.375 0-.856.108-1.07.323v-.323h-4.387v.323c-.321-.269-.91-.323-1.177-.323h-2.89v.323c-.267-.269-.909-.323-1.23-.323h-3.21l-.749.806-.695-.806h-.589l1.605 1.611.803-.859h2.835c.696 0 1.498.215 1.498 1.235 0 1.074-.749 1.289-1.551 1.289h-1.07v.805l.802.806v-.806h.268c.374 0 .856 0 1.23-.16v1.45h2.408v-1.397h.107c.16 0 .16 0 .16.161v1.235h7.277c.481 0 .963-.107 1.23-.322v.322h2.3c.429.054.91 0 1.285-.215zm-10.646-1.933c.107.161.16.376.16.698v.752h-.91v-.483c0-.215 0-.591-.16-.752-.107-.161-.32-.161-.642-.161h-.963v1.396h-.91v-3.813h2.034c.428 0 .802 0 1.07.162a.95.95 0 01.481.859c0 .59-.374.913-.642 1.02.268.107.428.215.482.322zm3.691-1.557H23.81v.698h2.033v.752H23.81v.752h2.086v.805H22.9v-3.813h2.996v.806zm2.248 3.007H26.43v-.805h1.713c.16 0 .267 0 .374-.108a.41.41 0 00.107-.268.411.411 0 00-.107-.269c-.053-.053-.16-.107-.32-.107-.857-.054-1.873 0-1.873-1.182 0-.537.32-1.127 1.284-1.127h1.765v.913h-1.659c-.16 0-.267 0-.374.053-.107.054-.107.161-.107.269 0 .16.107.215.214.268a.676.676 0 00.321.054h.482c.481 0 .802.107 1.016.322.16.161.268.43.268.806 0 .805-.482 1.181-1.391 1.181z" fill="#228FE0"/><path d="M30.71 16.863c0 .161.054.215.215.269.107.053.214.053.321.053h.482c.32 0 .535.054.748.162l-.802-.806h-.482c-.16 0-.267 0-.374.054a.411.411 0 00-.107.268zm-1.87-3.22l.107.161H29l-.16-.16zm-2.944-2.953l.91 2.201v-1.289l-.91-.912z" fill="#228FE0"/><path d="M16.746 12.461h.107c.107 0 .107 0 .107.161v1.181h3.852v-.322a3.2 3.2 0 001.445.322h1.605l.321-.859h.749l.321.86h3.103v-.537l-.749-.752v.59h-1.819l-.268-.859h-1.872l-.321.86H22.31c-.428 0-.963-.108-1.284-.43-.32-.322-.481-.752-.481-1.45 0-.537.107-1.074.481-1.504.268-.322.75-.43 1.338-.43h.856v.806h-.856c-.321 0-.482.054-.696.215-.16.161-.267.483-.267.86 0 .429.053.697.267.912.16.161.375.215.642.215h.375l1.23-2.954h.536l-.75-.751h-1.39c-.59 0-1.07.107-1.499.322v-.322h-2.354v.322c-.267-.215-.588-.322-1.016-.322H8.828l-.589 1.342-.588-1.342H5.297l.749.752h1.07l.91 1.986.32.322.963-2.362h1.498v3.812h-.909v-2.953l-.91 2.148 1.552 1.557h6.153l.053-1.396zm2.461-3.168h.91v3.812h-.91V9.293zm-4.708.805h-2.086v.698h2.033v.752h-2.033v.752h2.086v.805h-2.996V9.293H14.5v.805zm1.498 2.954h-.91V9.239h2.034c.481 0 .802 0 1.07.161.267.161.428.43.428.86 0 .59-.375.912-.642 1.02a.7.7 0 01.428.322c.107.215.16.376.16.698v.752h-.91v-.484c0-.214 0-.537-.16-.751-.053-.108-.214-.108-.535-.108h-.963v1.343z" fill="#228FE0"/></g><defs><clipPath id="clip0_2598_6265"><path fill="#fff" d="M0 0h33.705v28H0z"/></clipPath></defs></svg>