<svg width="169" height="50" fill="none" xmlns="http://www.w3.org/2000/svg"><g clip-path="url(#clip0_2490_5158)"><path d="M167.564 44.104a4.795 4.795 0 01-4.799 4.798H5.892a4.794 4.794 0 01-4.798-4.798V5.917A4.808 4.808 0 015.892 1.12h156.873a4.807 4.807 0 014.799 4.798v38.187z" fill="#fff"/><path d="M162.79 50H5.917C2.664 50 0 47.357 0 44.103V5.917A5.923 5.923 0 015.917 0H162.79a5.923 5.923 0 015.917 5.917v38.186c-.02 3.254-2.664 5.897-5.917 5.897z" fill="#000"/><path d="M167.564 44.104a4.795 4.795 0 01-4.799 4.798H5.892a4.794 4.794 0 01-4.798-4.798V5.917A4.808 4.808 0 015.892 1.12h156.873a4.807 4.807 0 014.799 4.798v38.187z" fill="#000"/><path d="M37.66 24.746c-.04-4.026 3.294-5.998 3.457-6.08-1.89-2.745-4.819-3.13-5.856-3.151-2.46-.265-4.84 1.464-6.1 1.464-1.281 0-3.213-1.444-5.287-1.403-2.684.04-5.185 1.586-6.547 4.005-2.827 4.9-.712 12.12 1.992 16.084 1.363 1.952 2.949 4.108 5.023 4.026 2.033-.081 2.786-1.301 5.246-1.301 2.42 0 3.152 1.301 5.266 1.24 2.176-.04 3.559-1.952 4.86-3.904 1.566-2.216 2.196-4.412 2.216-4.534-.04-.02-4.229-1.627-4.27-6.446zm-4.005-11.855c1.098-1.362 1.85-3.233 1.627-5.103-1.586.06-3.558 1.098-4.697 2.44-1.017 1.179-1.911 3.11-1.668 4.92 1.79.122 3.6-.915 4.738-2.257zm33.443 26.495h-2.847l-1.545-4.88h-5.429l-1.484 4.88h-2.766l5.348-16.633h3.314l5.41 16.633zm-4.88-6.934l-1.403-4.35c-.142-.448-.427-1.485-.834-3.132h-.04c-.163.712-.427 1.748-.793 3.131l-1.383 4.351h4.453zm18.628.793c0 2.034-.55 3.66-1.668 4.84-.996 1.057-2.236 1.586-3.7 1.586-1.586 0-2.725-.57-3.416-1.708v6.303h-2.664V31.354c0-1.28-.04-2.602-.102-3.944h2.339l.142 1.91h.04c.895-1.422 2.237-2.154 4.047-2.154 1.423 0 2.603.549 3.538 1.687.956 1.098 1.444 2.562 1.444 4.392zm-2.725.102c0-1.16-.264-2.135-.793-2.888-.57-.793-1.342-1.179-2.318-1.179-.65 0-1.26.224-1.79.65a3.142 3.142 0 00-1.057 1.709c-.08.325-.122.59-.122.813v1.993c0 .874.265 1.606.793 2.216.53.61 1.24.895 2.095.895.996 0 1.79-.386 2.338-1.159.57-.773.854-1.79.854-3.05zm16.514-.102c0 2.034-.55 3.66-1.667 4.84-.996 1.057-2.237 1.586-3.7 1.586-1.587 0-2.725-.57-3.417-1.708v6.303h-2.663V31.354c0-1.28-.041-2.602-.102-3.944h2.338l.143 1.91h.04c.895-1.422 2.237-2.154 4.047-2.154 1.423 0 2.603.549 3.537 1.687.977 1.098 1.444 2.562 1.444 4.392zm-2.704.102c0-1.16-.265-2.135-.793-2.888-.569-.793-1.342-1.179-2.318-1.179-.65 0-1.26.224-1.79.65-.528.448-.874 1.018-1.057 1.709-.081.325-.122.59-.122.813v1.993c0 .874.265 1.606.793 2.216.529.59 1.24.895 2.095.895.996 0 1.789-.386 2.338-1.159.57-.773.854-1.79.854-3.05zm18.134 1.383c0 1.423-.487 2.562-1.484 3.456-1.077.976-2.602 1.464-4.534 1.464-1.79 0-3.233-.346-4.311-1.037l.611-2.216c1.158.691 2.459 1.037 3.842 1.037.997 0 1.79-.224 2.339-.671.549-.447.834-1.057.834-1.81 0-.67-.224-1.24-.692-1.708-.468-.467-1.22-.895-2.298-1.28-2.908-1.078-4.371-2.685-4.371-4.759 0-1.362.508-2.48 1.545-3.355 1.037-.874 2.4-1.301 4.087-1.301 1.505 0 2.786.264 3.782.793l-.671 2.175c-.935-.508-2.013-.772-3.192-.772-.936 0-1.688.223-2.197.691-.447.407-.67.915-.67 1.505 0 .65.264 1.2.772 1.627.448.386 1.24.813 2.42 1.28 1.423.57 2.48 1.24 3.152 2.014.711.752 1.036 1.708 1.036 2.867zm8.837-5.328h-2.949v5.816c0 1.484.508 2.216 1.546 2.216.467 0 .874-.04 1.179-.122l.082 2.033c-.53.203-1.221.305-2.074.305-1.058 0-1.871-.325-2.461-.956-.589-.65-.895-1.728-.895-3.233v-6.059h-1.748V27.41h1.748v-2.196l2.623-.793v2.99h2.949v1.992zm13.241 3.904c0 1.85-.529 3.355-1.586 4.535-1.098 1.22-2.562 1.83-4.392 1.83-1.769 0-3.172-.59-4.209-1.749-1.037-1.16-1.566-2.643-1.566-4.412 0-1.85.549-3.376 1.627-4.575 1.078-1.18 2.542-1.77 4.352-1.77 1.768 0 3.171.59 4.249 1.75.996 1.118 1.525 2.582 1.525 4.391zm-2.765.061c0-1.098-.244-2.033-.712-2.826-.549-.956-1.362-1.424-2.399-1.424-1.078 0-1.891.468-2.44 1.424-.468.793-.712 1.748-.712 2.887 0 1.098.244 2.054.712 2.827.569.955 1.383 1.423 2.419 1.423 1.017 0 1.81-.488 2.399-1.444.468-.833.733-1.769.733-2.867zm11.432-3.619a5.534 5.534 0 00-.834-.081c-.935 0-1.667.346-2.175 1.057-.447.63-.672 1.424-.672 2.38v6.303h-2.663v-8.215a72.99 72.99 0 00-.081-3.782h2.318l.101 2.298h.082c.284-.793.732-1.424 1.342-1.912.589-.427 1.24-.65 1.931-.65.245 0 .468.02.671.04l-.02 2.562zm11.915 3.071c0 .467-.041.874-.102 1.2h-7.991c.02 1.178.427 2.093 1.159 2.724.671.549 1.545.834 2.623.834 1.18 0 2.257-.183 3.233-.57l.427 1.85c-1.139.489-2.48.733-4.026.733-1.85 0-3.314-.55-4.392-1.648-1.057-1.098-1.586-2.562-1.586-4.412 0-1.81.488-3.314 1.484-4.514 1.037-1.28 2.44-1.931 4.189-1.931 1.728 0 3.03.65 3.925 1.931.711 1.058 1.057 2.318 1.057 3.803zm-2.542-.692c.02-.793-.163-1.464-.508-2.054-.468-.752-1.18-1.118-2.115-1.118-.875 0-1.586.366-2.115 1.078-.447.57-.711 1.26-.793 2.074l5.531.02zM60.938 16.796h-1.403l-.773-2.4h-2.664l-.732 2.4h-1.362l2.623-8.174h1.627l2.684 8.174zm-2.38-3.396l-.69-2.135c-.082-.224-.204-.732-.407-1.545h-.02c-.082.345-.204.854-.387 1.545l-.671 2.135h2.175zm8.97-2.502l-2.236 5.897H64.01l-2.155-5.897h1.402l1.017 3.111c.163.53.305 1.017.427 1.485h.04c.102-.427.245-.915.428-1.485l.996-3.11h1.362zm4.756 5.897l-.102-.67h-.04c-.407.549-.976.813-1.729.813-1.057 0-1.81-.732-1.81-1.729 0-1.464 1.261-2.216 3.437-2.216v-.102c0-.772-.407-1.159-1.22-1.159-.59 0-1.098.143-1.545.448l-.265-.854c.55-.346 1.22-.509 2.034-.509 1.545 0 2.318.814 2.318 2.44v2.176c0 .59.02 1.057.08 1.403l-1.158-.04zm-.183-2.928c-1.464 0-2.176.346-2.176 1.18 0 .61.386.915.895.915.67 0 1.28-.508 1.28-1.2v-.895zm4.189-3.944a.777.777 0 01-.772-.793c0-.448.345-.773.793-.773.447 0 .813.325.793.773.02.488-.326.793-.814.793zm.671 6.872H75.66V10.9h1.301v5.896zm3.637 0h-1.301v-8.6h1.301v8.6zm5.572 0l-.101-.67h-.04c-.407.549-.977.813-1.73.813-1.056 0-1.809-.732-1.809-1.729 0-1.464 1.26-2.216 3.437-2.216v-.102c0-.772-.407-1.159-1.22-1.159-.59 0-1.098.143-1.546.448l-.264-.854c.549-.346 1.22-.509 2.033-.509 1.546 0 2.318.814 2.318 2.44v2.176c0 .59.02 1.057.082 1.403h-1.16v-.04zm-.183-2.928c-1.463 0-2.175.346-2.175 1.18 0 .61.386.915.895.915.67 0 1.28-.508 1.28-1.2v-.895zm6.586 3.071c-.834 0-1.465-.346-1.85-1.037h-.021l-.081.915h-1.119c.041-.468.041-1.017.041-1.586V8.215h1.322v3.558h.02c.386-.65 1.016-.976 1.87-.976 1.424 0 2.42 1.22 2.42 2.99 0 1.809-1.098 3.15-2.602 3.15zm-.265-5.124c-.753 0-1.444.65-1.444 1.566v1.037c0 .813.61 1.484 1.424 1.484.976 0 1.566-.793 1.566-2.074 0-1.2-.61-2.013-1.546-2.013zm6.122 4.981h-1.302v-8.6h1.302v8.6zm7.146-2.623h-3.925c.02 1.118.773 1.749 1.851 1.749.589 0 1.118-.102 1.586-.285l.203.915c-.549.244-1.22.366-1.972.366-1.851 0-2.928-1.159-2.928-2.969 0-1.81 1.118-3.172 2.785-3.172 1.505 0 2.461 1.119 2.461 2.806-.021.224-.021.427-.061.59zm-1.2-.935c0-.915-.468-1.546-1.301-1.546-.753 0-1.342.651-1.424 1.546h2.725zm9.145 3.701c-1.729 0-2.848-1.281-2.848-3.03 0-1.83 1.14-3.11 2.949-3.11 1.688 0 2.847 1.22 2.847 3.029-.021 1.83-1.2 3.111-2.948 3.111zm.04-5.205c-.956 0-1.545.894-1.545 2.114 0 1.22.61 2.095 1.545 2.095.936 0 1.545-.956 1.545-2.115-.02-1.18-.63-2.094-1.545-2.094zm9.923 5.062h-1.301V13.4c0-1.037-.407-1.565-1.179-1.565-.774 0-1.323.67-1.323 1.443v3.518h-1.301v-4.209c0-.529-.02-1.078-.041-1.688h1.159l.062.915h.04c.346-.63 1.078-1.037 1.872-1.037 1.24 0 2.053.956 2.053 2.481l-.041 3.538zm8.58-4.9h-1.443v2.867c0 .732.244 1.098.773 1.098.223 0 .427-.02.589-.061l.041.996c-.264.102-.59.143-1.017.143-1.036 0-1.647-.57-1.647-2.054v-2.969h-.854V10.9h.854V9.82l1.281-.386v1.464h1.444v.996h-.021zm6.937 4.9h-1.322V13.44c0-1.057-.406-1.586-1.179-1.586-.671 0-1.301.468-1.301 1.403v3.538h-1.322v-8.6h1.322v3.537h.02c.407-.65 1.016-.955 1.769-.955 1.24 0 2.013.976 2.013 2.521v3.497zm6.712-2.623h-3.945c.02 1.118.773 1.749 1.851 1.749a4.32 4.32 0 001.585-.285l.204.915c-.549.244-1.22.366-1.973.366-1.85 0-2.927-1.159-2.927-2.969 0-1.81 1.118-3.172 2.785-3.172 1.505 0 2.46 1.119 2.46 2.806 0 .224-.02.427-.04.59zm-1.2-.935c0-.915-.468-1.546-1.302-1.546-.751 0-1.342.651-1.423 1.546h2.725z" fill="#fff"/></g><defs><clipPath id="clip0_2490_5158"><path fill="#fff" d="M0 0h168.75v50H0z"/></clipPath></defs></svg>