<svg width="160" height="31" fill="none" xmlns="http://www.w3.org/2000/svg"><path d="M8.123 24.862a2.668 2.668 0 100-5.336 2.668 2.668 0 000 5.336zM6.976 9.19h16.139M8.389 12.417h14.02M7.661 19.525h10.453a2.683 2.683 0 002.537-1.81L24.959 5.18a2.682 2.682 0 012.536-1.81h3.134" stroke="#0AAD0A" stroke-width="1.283" stroke-miterlimit="10" stroke-linecap="round"/><path d="M8.124 22.58a.385.385 0 100-.771.385.385 0 000 .77z" stroke="#0AAD0A" stroke-width="1.069" stroke-miterlimit="10" stroke-linecap="round"/><path d="M17.822 24.862a2.668 2.668 0 100-5.336 2.668 2.668 0 000 5.336z" stroke="#0AAD0A" stroke-width="1.283" stroke-miterlimit="10" stroke-linecap="round"/><path d="M17.822 22.58a.385.385 0 100-.772.385.385 0 000 .771z" stroke="#0AAD0A" stroke-width="1.069" stroke-miterlimit="10" stroke-linecap="round"/><path d="M21.187 16.152H7.147a1.06 1.06 0 01-1.01-.8L3.754 6.629c-.12-.435.192-.87.624-.87h17.999M1 26.527s10.26-3.472 24.106 0" stroke="#0AAD0A" stroke-width="1.283" stroke-miterlimit="10" stroke-linecap="round"/><path d="M36.527 25V6.342H48.88v3.252h-8.41v4.446h7.59v3.253h-7.59V25h-3.944zm13.939 0V11.006h3.763v2.442h.145c.256-.869.684-1.525 1.285-1.968a3.376 3.376 0 012.077-.674c.195 0 .404.012.629.036.225.024.422.058.592.1v3.444a5.09 5.09 0 00-.756-.146 6.795 6.795 0 00-.884-.063c-.57 0-1.08.124-1.53.373a2.752 2.752 0 00-1.057 1.02c-.255.438-.383.942-.383 1.513V25h-3.88zm15.454.273c-1.44 0-2.678-.291-3.717-.874a5.991 5.991 0 01-2.387-2.497c-.559-1.08-.838-2.36-.838-3.835 0-1.44.28-2.703.838-3.79.559-1.087 1.345-1.935 2.36-2.542 1.02-.607 2.216-.911 3.59-.911a7.31 7.31 0 012.577.446 5.72 5.72 0 012.096 1.321c.601.59 1.069 1.33 1.403 2.223.334.887.5 1.926.5 3.116v1.066H60.528v-2.405h8.163c0-.559-.122-1.054-.365-1.485a2.61 2.61 0 00-1.011-1.011c-.425-.25-.92-.374-1.485-.374-.59 0-1.112.137-1.567.41-.45.267-.802.629-1.057 1.084-.255.45-.386.95-.392 1.503v2.287c0 .693.128 1.29.383 1.795.261.504.629.893 1.102 1.166.474.273 1.036.41 1.686.41.431 0 .826-.06 1.184-.182s.665-.304.92-.547c.255-.243.45-.54.583-.892l3.59.236a4.902 4.902 0 01-1.12 2.26c-.56.637-1.282 1.136-2.169 1.494-.88.352-1.898.528-3.052.528zm19.83-10.276l-3.554.218a1.837 1.837 0 00-.392-.82 2.08 2.08 0 00-.792-.592c-.322-.152-.708-.228-1.157-.228-.602 0-1.109.128-1.522.383-.413.249-.62.583-.62 1.002 0 .334.134.617.402.847.267.231.725.417 1.375.556l2.533.51c1.36.28 2.375.73 3.043 1.349.668.62 1.002 1.433 1.002 2.441 0 .918-.27 1.722-.81 2.415-.535.692-1.27 1.233-2.206 1.621-.929.383-2 .574-3.216.574-1.852 0-3.328-.385-4.427-1.157-1.094-.777-1.734-1.834-1.923-3.17l3.818-.2c.115.564.394.995.838 1.293.443.292 1.011.437 1.704.437.68 0 1.226-.13 1.64-.391.418-.268.631-.61.637-1.03a1.071 1.071 0 00-.446-.865c-.292-.231-.741-.407-1.349-.529l-2.423-.483c-1.367-.273-2.384-.747-3.052-1.42-.662-.675-.993-1.534-.993-2.58 0-.898.243-1.673.729-2.322.492-.65 1.181-1.151 2.068-1.504.893-.352 1.937-.528 3.134-.528 1.767 0 3.158.373 4.172 1.12 1.02.748 1.616 1.765 1.786 3.053zm5.873 1.913V25h-3.88V6.342h3.771v7.133h.164c.316-.826.826-1.473 1.53-1.94.705-.474 1.589-.711 2.652-.711.972 0 1.819.213 2.542.638.728.419 1.293 1.023 1.694 1.813.407.783.607 1.722.601 2.815V25h-3.88v-8.218c.005-.862-.213-1.533-.657-2.013-.437-.48-1.05-.72-1.84-.72-.528 0-.996.113-1.403.337a2.39 2.39 0 00-.948.984c-.224.425-.34.938-.346 1.54zm27.895-4.036h-3.991a3.898 3.898 0 00-.446-1.376 3.495 3.495 0 00-.866-1.038 3.802 3.802 0 00-1.221-.656 4.665 4.665 0 00-1.485-.228c-.965 0-1.806.24-2.523.72-.717.473-1.273 1.166-1.667 2.077-.395.905-.593 2.004-.593 3.298 0 1.33.198 2.448.593 3.352.401.905.959 1.589 1.676 2.05.717.462 1.546.693 2.487.693.529 0 1.017-.07 1.467-.21a3.88 3.88 0 001.212-.61c.352-.274.643-.605.874-.993.237-.389.401-.832.492-1.33l3.991.018a7.237 7.237 0 01-.775 2.478 7.437 7.437 0 01-1.649 2.123c-.686.62-1.506 1.111-2.46 1.476-.947.358-2.019.537-3.216.537-1.664 0-3.152-.377-4.464-1.13-1.306-.753-2.338-1.843-3.097-3.27-.753-1.428-1.13-3.156-1.13-5.184 0-2.035.383-3.766 1.148-5.193.765-1.428 1.804-2.515 3.116-3.262 1.312-.753 2.787-1.13 4.427-1.13 1.081 0 2.084.152 3.007.456a7.63 7.63 0 012.469 1.33 6.845 6.845 0 011.749 2.123c.456.838.747 1.798.875 2.879zm5.976 12.39c-.893 0-1.688-.155-2.387-.465a3.845 3.845 0 01-1.658-1.393c-.401-.62-.601-1.391-.601-2.314 0-.778.143-1.43.428-1.96a3.471 3.471 0 011.166-1.275 5.656 5.656 0 011.677-.729 12.89 12.89 0 011.986-.346c.814-.085 1.47-.164 1.968-.237.498-.079.859-.194 1.084-.346.224-.152.337-.376.337-.674v-.055c0-.577-.182-1.023-.547-1.339-.358-.316-.868-.474-1.53-.474-.699 0-1.255.155-1.668.465a2.14 2.14 0 00-.82 1.148l-3.589-.292a4.87 4.87 0 011.075-2.204c.534-.626 1.224-1.106 2.068-1.44.85-.34 1.834-.51 2.952-.51.777 0 1.521.091 2.232.273a5.84 5.84 0 011.904.848c.559.382.999.874 1.321 1.476.322.595.483 1.308.483 2.14V25h-3.681v-1.94h-.109a3.946 3.946 0 01-.902 1.156 4.174 4.174 0 01-1.358.775c-.528.182-1.138.273-1.831.273zm1.112-2.678c.571 0 1.075-.113 1.512-.337a2.684 2.684 0 001.03-.93c.249-.388.373-.829.373-1.32v-1.486a2.064 2.064 0 01-.501.219c-.206.06-.44.118-.701.173-.262.049-.523.094-.784.137l-.711.1a4.8 4.8 0 00-1.193.319c-.34.146-.604.343-.793.592-.188.243-.282.547-.282.911 0 .528.191.932.574 1.212.389.273.881.41 1.476.41zm9.01 2.414V11.006h3.763v2.442h.146c.255-.869.683-1.525 1.284-1.968a3.378 3.378 0 012.077-.674c.195 0 .404.012.629.036.225.024.422.058.592.1v3.444a5.078 5.078 0 00-.756-.146 6.79 6.79 0 00-.884-.063c-.571 0-1.081.124-1.53.373a2.746 2.746 0 00-1.057 1.02c-.255.438-.383.942-.383 1.513V25h-3.881zm17.873-13.994v2.916h-8.427v-2.916h8.427zm-6.514-3.352h3.881V20.7c0 .358.055.637.164.838a.901.901 0 00.456.41c.2.079.431.118.692.118.182 0 .364-.015.547-.045.182-.037.321-.064.419-.082l.61 2.888c-.194.06-.468.13-.82.21-.352.084-.78.136-1.284.154-.936.037-1.756-.088-2.46-.373a3.432 3.432 0 01-1.631-1.33c-.389-.602-.58-1.36-.574-2.278V7.654z" fill="#21313C"/></svg>