<svg width="29" height="28" fill="none" xmlns="http://www.w3.org/2000/svg"><g clip-path="url(#clip0_2598_6225)"><path d="M28.087 13.999c0 4.622-3.745 8.4-8.426 8.4-4.637 0-8.427-3.778-8.427-8.4 0-4.623 3.745-8.4 8.382-8.4 4.726 0 8.471 3.777 8.471 8.4z" fill="#FFB600"/><path d="M19.66 5.599c4.637 0 8.427 3.777 8.427 8.4 0 4.622-3.745 8.4-8.426 8.4-4.637 0-8.427-3.778-8.427-8.4" fill="#F7981D"/><path d="M19.66 5.599c4.637 0 8.427 3.777 8.427 8.4 0 4.622-3.746 8.4-8.427 8.4" fill="#FF8500"/><path d="M8.337 5.599C3.745 5.643 0 9.376 0 13.999c0 4.622 3.745 8.4 8.426 8.4 2.185 0 4.147-.845 5.662-2.178.313-.267.58-.578.848-.889h-1.74a10.25 10.25 0 01-.623-.845h2.987a5.7 5.7 0 00.49-.888h-3.968a5.28 5.28 0 01-.357-.89h4.637c.268-.844.446-1.733.446-2.666 0-.622-.09-1.2-.178-1.778h-5.172c.045-.31.134-.578.223-.889h4.637a5.288 5.288 0 00-.357-.888h-3.923c.133-.312.312-.578.49-.89h2.987a4.23 4.23 0 00-.669-.888h-1.65c.268-.311.536-.578.848-.845-1.471-1.377-3.478-2.177-5.662-2.177 0-.09 0-.09-.045-.09z" fill="#FF5050"/><path d="M0 14c0 4.621 3.745 8.4 8.426 8.4 2.185 0 4.147-.845 5.662-2.179.313-.266.58-.578.848-.889h-1.74a10.233 10.233 0 01-.623-.844h2.987c.178-.267.356-.578.49-.889h-3.968a5.288 5.288 0 01-.357-.889h4.637c.268-.844.446-1.733.446-2.667 0-.622-.09-1.2-.178-1.777h-5.172c.045-.311.134-.578.223-.89h4.637a5.288 5.288 0 00-.357-.888h-3.923c.133-.311.312-.578.49-.889h2.987a4.23 4.23 0 00-.669-.889h-1.65a7.68 7.68 0 01.848-.844c-1.471-1.378-3.478-2.178-5.662-2.178h-.045" fill="#E52836"/><path d="M8.427 22.4c2.184 0 4.146-.845 5.662-2.178.312-.267.58-.578.847-.889h-1.739a10.252 10.252 0 01-.624-.844h2.987a5.64 5.64 0 00.49-.89h-3.967a5.288 5.288 0 01-.357-.888h4.637c.267-.845.445-1.733.445-2.667 0-.622-.089-1.2-.178-1.778h-5.17c.044-.31.133-.577.222-.889h4.637a5.288 5.288 0 00-.357-.888h-3.923c.134-.312.312-.578.49-.89h2.988a4.226 4.226 0 00-.67-.888h-1.649a7.68 7.68 0 01.847-.845c-1.47-1.377-3.444-2.255-5.628-2.255H8.37" fill="#CB2026"/><path d="M11.414 16.133l.134-.755c-.045 0-.134.044-.223.044-.312 0-.357-.178-.312-.267l.267-1.555h.49l.134-.845h-.445l.089-.533h-.892s-.535 2.934-.535 3.29c0 .532.312.755.713.755.268 0 .49-.09.58-.134zm.313-1.423c0 1.245.847 1.556 1.56 1.556.669 0 .936-.133.936-.133l.179-.844s-.49.222-.937.222c-.98 0-.802-.711-.802-.711h1.828s.133-.578.133-.8c0-.578-.312-1.29-1.292-1.29-.937-.088-1.605.89-1.605 2zm1.56-1.288c.49 0 .401.578.401.622h-.98c0-.044.089-.622.579-.622zm5.661 2.71l.178-.977s-.445.222-.757.222c-.625 0-.892-.489-.892-1.022 0-1.067.535-1.645 1.16-1.645.445 0 .802.267.802.267l.133-.934s-.535-.222-1.025-.222c-1.026 0-2.05.89-2.05 2.578 0 1.111.534 1.867 1.604 1.867.357 0 .847-.134.847-.134zM6.51 12.621c-.624 0-1.07.178-1.07.178l-.133.755s.401-.177.98-.177c.313 0 .58.044.58.31 0 .179-.044.223-.044.223H6.42c-.758 0-1.605.311-1.605 1.333 0 .8.535.978.848.978.624 0 .891-.4.936-.4l-.045.356h.803l.356-2.445c0-1.066-.891-1.11-1.203-1.11zm.179 2c0 .133-.09.845-.624.845-.268 0-.357-.223-.357-.356 0-.222.134-.533.803-.533a.703.703 0 00.178.044zm1.871 1.601c.223 0 1.338.044 1.338-1.156 0-1.111-1.07-.889-1.07-1.333 0-.223.178-.311.49-.311.134 0 .625.044.625.044l.133-.8s-.312-.089-.847-.089c-.668 0-1.337.267-1.337 1.156 0 1.022 1.114.933 1.114 1.333 0 .267-.312.311-.535.311-.4 0-.802-.133-.802-.133l-.134.8c.045.089.268.178 1.026.178zm17.79-4.312l-.178 1.2s-.357-.444-.848-.444c-.802 0-1.515.978-1.515 2.133 0 .712.356 1.467 1.114 1.467.535 0 .847-.355.847-.355l-.044.31h.891l.67-4.266-.937-.044zm-.401 2.356c0 .49-.223 1.111-.714 1.111-.312 0-.49-.266-.49-.71 0-.712.312-1.156.713-1.156.312 0 .49.222.49.755zM1.65 16.177l.535-3.2.089 3.2h.624l1.16-3.2-.491 3.2h.936l.714-4.266H3.745l-.891 2.622-.045-2.622H1.516l-.713 4.266h.847zm13.821 0c.268-1.467.312-2.667.936-2.445.09-.578.223-.8.312-1.022h-.178c-.401 0-.713.533-.713.533l.089-.489h-.847l-.58 3.467h.981v-.044zm5.528-3.556c-.624 0-1.07.178-1.07.178l-.134.755s.401-.177.98-.177c.313 0 .58.044.58.31 0 .179-.044.223-.044.223h-.401c-.758 0-1.605.311-1.605 1.333 0 .8.535.978.847.978.624 0 .891-.4.936-.4l-.045.356h.803l.357-2.445c.044-1.066-.892-1.11-1.204-1.11zm.223 2c0 .133-.09.845-.624.845-.268 0-.357-.223-.357-.356 0-.222.134-.533.802-.533.134.044.134.044.179.044zm1.739 1.556c.268-1.467.312-2.667.937-2.445.089-.578.223-.8.312-1.022h-.179c-.4 0-.713.533-.713.533l.09-.489h-.848l-.58 3.467h.981v-.044z" fill="#fff"/><path d="M10.031 15.511c0 .533.312.756.714.756.312 0 .58-.09.668-.134l.134-.755c-.045 0-.134.044-.223.044-.312 0-.357-.178-.312-.267l.268-1.555h.49l.134-.845h-.446l.09-.533m.624 2.488c0 1.245.401 1.556 1.114 1.556.67 0 .937-.133.937-.133l.178-.844s-.49.222-.936.222c-.981 0-.803-.711-.803-.711h1.828s.134-.578.134-.8c0-.578-.312-1.29-1.293-1.29-.936-.088-1.16.89-1.16 2zm1.114-1.288c.49 0 .58.578.58.622h-1.16c0-.044.09-.622.58-.622zm5.664 2.71l.178-.977s-.446.222-.758.222c-.624 0-.892-.489-.892-1.022 0-1.067.535-1.645 1.16-1.645.445 0 .802.267.802.267l.134-.934s-.535-.222-1.026-.222c-1.025 0-1.605.89-1.605 2.578 0 1.111.09 1.867 1.16 1.867.356 0 .847-.134.847-.134zM5.307 13.599s.401-.178.98-.178c.313 0 .58.045.58.311 0 .178-.044.222-.044.222H6.42c-.758 0-1.605.311-1.605 1.334 0 .8.535.977.848.977.624 0 .891-.4.936-.4l-.045.356h.803l.356-2.444c0-1.023-.891-1.067-1.248-1.067l-1.16.889zm1.828 1.022c0 .133-.535.845-1.07.845-.268 0-.357-.223-.357-.356 0-.222.134-.533.803-.533.133.044.624.044.624.044zm.445 1.512s.268.089 1.025.089c.223 0 1.338.044 1.338-1.156 0-1.111-1.07-.889-1.07-1.333 0-.223.178-.311.49-.311.134 0 .625.044.625.044l.133-.8s-.312-.089-.847-.089c-.668 0-.891.267-.891 1.156 0 1.022.668.933.668 1.333 0 .267-.312.311-.535.311M26.17 13.11s-.356-.445-.847-.445c-.802 0-1.07.978-1.07 2.134 0 .71-.089 1.466.669 1.466.535 0 .847-.355.847-.355l-.044.31h.891l.669-4.266-1.115 1.156zm-.044 1.155c0 .49-.402 1.111-.892 1.111-.312 0-.49-.266-.49-.71 0-.712.312-1.156.713-1.156.312 0 .669.222.669.755zM1.65 16.177l.535-3.2.089 3.2h.624l1.16-3.2-.491 3.2h.936l.714-4.266H4.102l-1.248 2.622-.045-2.622h-.49L.803 16.177h.847zm12.885 0h.936c.268-1.467.313-2.667.937-2.445.089-.578.223-.8.312-1.022h-.179c-.4 0-.713.533-.713.533l.09-.489m3.877.845s.401-.178.98-.178c.313 0 .58.045.58.311 0 .178-.044.222-.044.222h-.401c-.758 0-1.605.311-1.605 1.334 0 .8.535.977.847.977.624 0 .891-.4.936-.4l-.045.356h.803l.357-2.444c0-1.023-.892-1.067-1.249-1.067l-1.159.889zm1.828 1.022c0 .133-.535.845-1.07.845-.268 0-.357-.223-.357-.356 0-.222.134-.533.803-.533.178.044.624.044.624.044zm.4 1.556h.937c.267-1.467.312-2.667.936-2.445.09-.578.223-.8.312-1.022h-.178c-.402 0-.714.533-.714.533l.09-.489" fill="#DCE5E5"/></g><defs><clipPath id="clip0_2598_6225"><path fill="#fff" d="M0 0h28.088v28H0z"/></clipPath></defs></svg>