<svg width="40" height="28" fill="none" xmlns="http://www.w3.org/2000/svg"><g clip-path="url(#clip0_2598_6254)"><path d="M30.398 12.306h-2.122c-.125 0-.25.125-.312.249l-.874 5.476c0 .124.062.186.187.186h1.124c.124 0 .187-.062.187-.186l.25-1.556c0-.124.124-.249.312-.249h.686c1.436 0 2.247-.684 2.434-2.053.125-.56 0-1.058-.25-1.37-.374-.31-.936-.497-1.622-.497zm.25 2.054c-.125.746-.687.746-1.249.746h-.374l.25-1.431c0-.062.062-.124.187-.124h.125c.374 0 .748 0 .936.248.125.063.125.25.125.56z" fill="#139AD6"/><path d="M15.107 12.306h-2.122c-.125 0-.25.125-.312.249l-.874 5.476c0 .124.062.186.187.186h.999c.125 0 .25-.124.312-.249l.25-1.493c0-.124.124-.249.312-.249h.686c1.436 0 2.247-.684 2.434-2.053.125-.56 0-1.058-.25-1.37-.374-.31-.873-.497-1.622-.497zm.25 2.054c-.125.746-.687.746-1.249.746h-.312l.25-1.431c0-.062.062-.124.187-.124h.125c.374 0 .749 0 .936.248.063.063.125.25.063.56zm6.178-.063h-.999c-.062 0-.187.062-.187.124l-.063.311-.062-.124c-.25-.311-.687-.436-1.186-.436-1.123 0-2.122.871-2.31 2.054a1.85 1.85 0 00.375 1.555c.312.374.75.498 1.31.498.937 0 1.436-.56 1.436-.56l-.062.311c0 .125.062.187.187.187h.936c.125 0 .25-.125.313-.25l.561-3.483c-.062-.063-.187-.187-.25-.187zm-1.436 1.99c-.125.56-.562.997-1.186.997-.312 0-.562-.125-.686-.25-.125-.186-.188-.435-.188-.746.063-.56.562-.996 1.124-.996.312 0 .5.125.686.25.188.186.25.497.25.746z" fill="#263B80"/><path d="M36.763 14.296h-.998c-.063 0-.188.063-.188.125l-.062.31-.063-.124c-.25-.31-.686-.435-1.185-.435-1.124 0-2.123.871-2.31 2.053a1.85 1.85 0 00.375 1.556c.312.373.749.498 1.31.498.937 0 1.436-.56 1.436-.56l-.063.31c0 .125.063.187.188.187h.936c.125 0 .25-.124.312-.249l.562-3.484c-.063-.062-.125-.187-.25-.187zm-1.435 1.991c-.125.56-.562.996-1.186.996-.312 0-.562-.125-.687-.249-.125-.187-.187-.435-.187-.747.062-.56.562-.995 1.123-.995.312 0 .5.124.687.249.25.186.312.497.25.746z" fill="#139AD6"/><path d="M26.962 14.294h-1.06c-.126 0-.188.062-.25.124l-1.374 2.116-.624-1.991c-.062-.125-.125-.187-.312-.187h-.998c-.125 0-.188.125-.188.25l1.124 3.297-1.061 1.493c-.063.125 0 .311.124.311h1c.124 0 .186-.062.249-.124l3.433-4.916c.187-.186.062-.373-.063-.373z" fill="#263B80"/><path d="M37.952 12.492l-.874 5.6c0 .124.063.186.187.186h.874c.125 0 .25-.124.312-.249l.874-5.475c0-.125-.062-.187-.187-.187h-.999c-.062-.062-.125 0-.187.125z" fill="#139AD6"/><path d="M7.178 10.439c-.437-.498-1.248-.747-2.372-.747h-3.12c-.188 0-.375.187-.438.373L0 18.216c0 .187.125.311.25.311h1.935l.499-3.048v.124c.062-.187.25-.373.437-.373h.936c1.81 0 3.183-.747 3.62-2.8v-.187c-.062 0-.062 0 0 0 .063-.809-.062-1.307-.499-1.804z" fill="#263B80"/><path d="M7.614 12.242v.186c-.437 2.116-1.81 2.8-3.62 2.8h-.937c-.187 0-.374.187-.437.374l-.624 3.795c0 .125.063.25.25.25h1.623c.187 0 .374-.125.374-.312v-.062l.312-1.93v-.123c0-.187.187-.312.375-.312h.25c1.56 0 2.808-.622 3.12-2.489.125-.746.063-1.43-.312-1.866a.639.639 0 00-.374-.311z" fill="#139AD6"/><path d="M7.178 12.057c-.063 0-.125-.062-.188-.062-.062 0-.124 0-.187-.063-.25-.062-.5-.062-.811-.062H3.557c-.062 0-.124 0-.187.062a.342.342 0 00-.187.311l-.5 3.236v.125c.063-.187.25-.374.438-.374h.936c1.81 0 3.183-.747 3.62-2.8 0-.062 0-.124.062-.187-.124-.062-.187-.124-.312-.124-.187-.062-.187-.062-.25-.062z" fill="#232C65"/></g><defs><clipPath id="clip0_2598_6254"><path fill="#fff" d="M0 0h39.323v28H0z"/></clipPath></defs></svg>